<?xml version="1.0" standalone="no"?>
<!DOCTYPE svg PUBLIC "-//W3C//DTD SVG 20010904//EN"
 "http://www.w3.org/TR/2001/REC-SVG-20010904/DTD/svg10.dtd">
<svg version="1.0" xmlns="http://www.w3.org/2000/svg"
 width="1280.000000pt" height="1218.000000pt" viewBox="0 0 1280.000000 1218.000000"
 preserveAspectRatio="xMidYMid meet">
<g transform="translate(0.000000,1218.000000) scale(0.100000,-0.100000)"
fill="#000000" stroke="none">
<path d="M9843 12162 c-65 -23 -125 -64 -159 -109 -15 -20 -140 -297 -277
-617 -233 -541 -251 -586 -255 -651 -9 -156 73 -266 258 -345 100 -43 110 -45
200 -45 107 0 147 15 221 82 47 43 62 70 159 298 40 94 76 178 81 187 8 15 18
13 102 -24 50 -22 94 -42 96 -44 3 -3 -21 -57 -52 -122 -31 -64 -111 -236
-177 -382 -67 -146 -167 -353 -222 -460 -55 -107 -268 -526 -473 -930 -389
-768 -540 -1052 -684 -1283 -204 -328 -361 -487 -538 -549 -64 -22 -83 -23
-308 -23 l-240 0 -108 -38 c-59 -20 -221 -84 -360 -141 -431 -178 -579 -220
-792 -220 -193 -1 -301 30 -692 198 -437 188 -494 201 -868 201 -329 0 -466
-19 -705 -96 -261 -85 -411 -193 -705 -508 -82 -88 -280 -284 -440 -435 -159
-151 -334 -320 -389 -375 -54 -56 -100 -101 -101 -101 -1 0 -5 157 -8 348 -7
384 -20 690 -42 1002 -8 113 -17 271 -21 353 l-7 147 136 0 137 0 0 -232 c0
-306 14 -357 117 -447 72 -64 131 -81 283 -81 107 0 139 4 186 21 97 37 176
125 203 229 9 33 11 219 9 690 l-3 645 -26 55 c-31 66 -90 127 -155 160 -46
24 -58 25 -209 25 -152 0 -163 -1 -215 -26 -59 -28 -122 -86 -148 -134 -35
-69 -42 -126 -42 -380 l0 -250 -137 2 -138 2 -7 82 c-10 113 -25 173 -61 242
-61 116 -175 159 -417 159 -165 0 -292 -21 -428 -70 -201 -74 -304 -178 -352
-355 l-16 -58 -127 -2 -127 -2 0 251 c0 314 -9 353 -98 444 -86 87 -137 103
-322 98 -131 -3 -150 -5 -194 -28 -65 -33 -124 -94 -155 -160 l-26 -55 0 -670
0 -670 24 -52 c31 -70 111 -144 184 -171 48 -18 79 -22 187 -22 150 0 209 16
279 77 104 89 121 152 121 455 l0 228 115 0 115 0 0 -97 c0 -54 7 -199 15
-323 21 -329 33 -608 45 -1026 16 -568 39 -902 85 -1229 46 -321 141 -603 259
-769 85 -120 225 -226 346 -264 78 -24 341 -23 460 2 272 57 519 150 690 259
303 193 869 716 1305 1205 l110 124 3 -2681 2 -2681 2040 0 2040 0 0 2738 0
2737 49 18 c221 78 625 610 1244 1637 733 1217 1438 2491 1691 3056 l81 181
115 -49 c63 -27 119 -53 123 -57 4 -4 -34 -104 -85 -222 l-93 -214 0 -90 c0
-76 4 -97 25 -139 40 -78 92 -124 197 -173 137 -64 202 -78 282 -64 79 15 111
31 172 88 53 49 33 8 349 738 216 498 223 518 217 603 -11 141 -88 230 -268
307 -97 41 -123 48 -179 48 -36 0 -83 -5 -106 -11 -53 -15 -122 -62 -158 -108
-16 -20 -74 -141 -129 -268 -55 -127 -101 -232 -102 -234 -4 -4 -246 98 -256
107 -4 3 4 49 17 101 50 196 41 332 -33 472 -92 175 -310 281 -578 281 -240 1
-400 -79 -536 -266 -29 -39 -54 -73 -55 -75 -2 -3 -216 86 -222 93 -1 1 43
108 99 236 114 264 127 320 95 417 -39 118 -101 175 -261 242 -123 51 -203 60
-282 32z"/>
<path d="M6360 10759 c-544 -61 -1030 -412 -1266 -916 -96 -203 -144 -427
-144 -666 0 -282 42 -462 166 -712 217 -439 598 -737 1089 -851 111 -26 136
-28 330 -28 231 0 324 13 510 75 471 156 859 549 1008 1020 63 200 72 260 72
494 -1 232 -15 329 -77 510 -173 509 -598 902 -1116 1034 -173 45 -394 60
-572 40z"/>
</g>
</svg>
