<svg xmlns="http://www.w3.org/2000/svg" xmlns:xlink="http://www.w3.org/1999/xlink" version="1.1" x="0px" y="0px" viewBox="0 0 50 50" style="enable-background:new 0 0 50 50;" xml:space="preserve"><path d="M24.998,49v-6h18v-9h5v-3.277l-6-10.003c-0.078-5.568-2.489-10.877-6.641-14.605c-4.28-3.843-9.812-5.613-15.578-4.994  C10.658,2.105,3.243,9.434,2.148,18.547c-0.622,5.171,0.745,10.279,3.852,14.423L5.998,49H24.998z M4.133,18.786  c0.985-8.199,7.656-14.792,15.861-15.678c5.194-0.558,10.175,1.036,14.027,4.494C37.821,11.014,40,15.898,40,21v0.277l5.998,10V32  h-5v4h-3c-1.654,0-3-1.346-3-3h-2c0,2.757,2.243,5,5,5h3v3h-17h-1h-3v2h3v4h-15l0.001-14.71L7.79,32.02  C4.859,28.246,3.561,23.546,4.133,18.786z"></path><path d="M17,26h10v-2H17c-2.757,0-5-2.243-5-5s2.243-5,5-5h5.586l-2.293,2.293l1.414,1.414L26.414,13l-4.707-4.707l-1.414,1.414  L22.586,12H17c-3.86,0-7,3.14-7,7S13.14,26,17,26z"></path><rect x="29" y="24" width="2" height="2"></rect><rect x="33" y="24" width="2" height="2"></rect></svg>