<?xml version="1.0" encoding="UTF-8"?>
<svg enable-background="new 0 0 137.561 137.522" viewBox="0 0 137.561 137.522" xmlns="http://www.w3.org/2000/svg">
 <defs>
  <radialGradient id="a" cx="68.795" cy="68.738" r="63.929" gradientUnits="userSpaceOnUse">
   <stop stop-color="#f28888" offset="0"/>
   <stop stop-color="#d82a2a" offset="1"/>
  </radialGradient>
 </defs>
 <path d="m0 68.736c0 35.047 27.489 65.293 62.416 68.504 34.939 3.211 67.633-21.357 74.024-55.91s-15.17-69.343-49.026-78.837c-33.867-9.498-70.463 8.941-82.952 41.818-2.958 7.786-4.462 16.097-4.462 24.425" fill="#970f00"/>
 <path d="m4.866 68.736c0 34.84 29.089 63.932 63.929 63.932s63.929-29.092 63.929-63.932-29.09-63.928-63.929-63.928-63.929 29.09-63.929 63.928" fill="url(#a)"/>
 <path d="m11.031 43.889c-5.166 30.106 12.817 60.349 41.733 70.201 30.669 10.451 65.179-4.994 78.005-34.7-6.163 35.951-43.128 59.583-78.349 50.078-36.365-9.813-56.377-50.905-41.389-85.579" fill="#b20d0d"/>
 <path d="m28.866,40.359c8.843,1.829 19.021-10.696 26.687-13.884 14.322-5.952 32.211-3.188 45.186,4.917 13.725,8.577 23.487,25.046 24.988,41.214 .005.046.005.055.001.024-1.014-9.79-.329-18.994-4.058-28.458-6.178-15.686-19.538-27.97-35.646-32.907-16.655-5.102-34.868-1.854-49.216,7.87-4.43,3.002-21.483,18.421-7.942,21.224" fill="#ef5656"/>
 <path d="m56.402,29.004c0,12.468 2.023,25.46 3.989,37.73 .611,3.81 6.289,34.225 12.748,19.444 6.113-13.989 6.633-31.416 7.934-46.428 .374-4.312 1.738-10.094.152-14.32-4.347-11.588-24.823-9.531-24.823,3.574m2.83,0c0-9.723 15.119-11.221 19.028-3.301 2.143,4.336.3,11.619-.168,16.177-1.413,13.733-2.669,28.264-6.791,41.504-.96,3.083-2.245,6.081-3.875,1.675-2.043-5.521-2.899-11.584-3.847-17.364-2.076-12.63-4.347-25.851-4.347-38.691" fill="#970f00" fill-rule="evenodd"/>
 <path d="m55.695 107.19c0 16.873 26.18 16.873 26.18 0 0-16.877-26.18-16.879-26.18 0m2.833 0c0-13.229 20.511-13.229 20.511 0s-20.511 13.226-20.511 0" fill="#970f00" fill-rule="evenodd"/>
 <path d="m80.459,29.004c0,12.923-2.271,26.35-4.382,39.055-.511,3.066-5.097,29.739-9.896,17.146-5.206-13.656-6.03-29.752-7.442-44.173-.443-4.519-2.079-11.104-.213-15.484 4.151-9.753 21.933-7.942 21.933,3.456" fill="#fff" fill-rule="evenodd"/>
 <path d="m80.459 107.19c0 15.054-23.347 15.054-23.347 0 0-15.057 23.347-15.057 23.347 0" fill="#fff" fill-rule="evenodd"/>
</svg>
