<svg xmlns="http://www.w3.org/2000/svg" xmlns:xlink="http://www.w3.org/1999/xlink" version="1.1" x="0px" y="0px" viewBox="0 0 100 100" enable-background="new 0 0 100 100"><path d="M92.448,33.179H82.406c-1.104,0-2,0.896-2,2v0.757c-1.596-0.274-3.983-1.093-4.055-1.184  c-1.464-1.869-4.268-3.577-4.304-3.595l-11.606-8.111c-0.045-0.031-0.091-0.06-0.139-0.086c-1.684-0.921-11.099,0.271-13.519,1.012  c-0.587-0.98-1.419-1.797-2.414-2.36l0.806-2.213c0.375-1.027-0.146-2.165-1.168-2.554l-1.234-0.47l1.316-3.614  c0.657-1.804-0.183-3.773-1.874-4.392l-4.888-1.78c-0.826-0.3-1.779-0.238-2.621,0.176c-0.833,0.407-1.461,1.095-1.767,1.935  l-1.316,3.615l-1.246-0.435c-1.032-0.362-2.163,0.177-2.537,1.204L15.557,46.812c-0.112,0.307,0.727,6.935,0.727,6.935  c0.103,0.733,0.602,1.351,1.297,1.604c0,0,8.824,3.169,9.054,3.169c0.499,0,0.99-0.188,1.367-0.54l2.572-2.407  c0.009,0.077,0.002,0.152,0.015,0.229c0.38,2.244,2.479,3.627,4.857,3.23l4.58-0.63v7.794l-6.339,2.689L8.203,60.109  c-1.046-0.36-2.183,0.195-2.542,1.239c-0.36,1.045,0.195,2.183,1.239,2.542l26.209,9.024c0.468,0.161,0.978,0.144,1.433-0.05  l5.373-2.279l-1.82,11.764H15.511c-1.104,0-2,0.896-2,2v7.25c0,1.104,0.896,2,2,2h49.25c1.104,0,2-0.896,2-2v-7.25  c0-1.104-0.896-2-2-2h-1.584l-1.305-14.976c1.262-1.439,2.448-3.321,2.846-6.127c3.148-0.361,14.361-3.873,15.688-4.247v2.774  c0,1.104,0.896,2,2,2h10.042c1.104,0,2-0.896,2-2V35.179C94.448,34.074,93.553,33.179,92.448,33.179z M41.137,24.257  c1.701,0,3.086,1.385,3.086,3.086s-1.385,3.086-3.086,3.086c-1.702,0-3.087-1.385-3.087-3.086S39.435,24.257,41.137,24.257z   M46.772,30.734c0.95,0.83,2.115,2.036,2.833,3.44c-2.498-0.108-5.135-0.224-7.482-0.327C44.096,33.548,45.78,32.376,46.772,30.734z   M51.82,34.269c-0.391-1.07-0.996-2.049-1.672-2.902c1.747,0.351,3.948,0.383,6.693,0.384c0.353,0.37,2.048,2.483,2.331,2.82  C58.431,34.55,55.451,34.426,51.82,34.269z M36.522,10.553l3.633,1.323l-1.814,4.983c-0.013,0.035-0.016,0.07-0.027,0.105  l-3.654-1.331c0.014-0.033,0.034-0.062,0.047-0.097L36.522,10.553z M30.894,16.39l9.819,3.577l-0.303,0.833  c-3.29,0.364-5.859,3.158-5.859,6.543c0,2.145,1.036,4.048,2.628,5.251l-0.371,1.018c-0.963-0.043-1.627-0.072-1.853-0.082  c-2.343-0.341-4.293,1.003-4.672,3.239c-0.379,2.245,1.119,4.239,3.483,4.64c0.055,0.01,0.11,0.016,0.165,0.019l0.029,0.002  l-0.315,0.865l-2.573,0.172c-0.008,0-0.016,0-0.023,0c-1.08,0-2.091,0.35-2.856,0.989c-0.645,0.538-1.079,1.251-1.27,2.056  l-5.877-2.087L30.894,16.39z M40.751,41.818l-4.925,0.329l0.219-0.6L40.751,41.818z M26.164,54.219l-6.084-2.216l-0.595-4.29  l0.876-2.409l6.656,2.364c0.203,0.639,1.045,2.332,2.674,2.557l-0.383,1.05L26.164,54.219z M33.902,50.352l6.109-0.203  c0,0-6.284,1.094-6.451,1.141L33.902,50.352z M51.199,56.864l-2.464,1.531c-0.275-0.011-3.497-0.535-4.71-0.246v-0.299  L51.199,56.864z M43.84,71.372c0.006,0,0.011,0,0.017,0c3.149,0,9.938-0.344,14.085-3.012l1.393,15.989H41.833L43.84,71.372z   M44.025,68.875V65.52c1.236,0.761,2.822,1.477,4.081,1.477c0.257,0,9.615-2.58,11.687-3.529  C57.844,66.781,51.156,68.947,44.025,68.875z M62.761,89.6h-45.25v-3.25h45.25V89.6z M62.532,58.561  c-0.455,0.058-5.325,3.304-14.398,5.427c-0.85,0.07-3.497-1.392-4.017-2.21c0.053-0.233,0.144-0.479,0.304-0.595  c0.474-0.348,1.807-0.127,2.688,0.02c0.969,0.161,1.808,0.301,2.56,0.081c0.131-0.038,6.574-4.021,6.574-4.021  c0.576-0.359,0.841-1.061,0.644-1.71c-0.41-1.352-0.742-2.413-2.034-2.219l-19.861,2.73c-0.473,0.085-1.314,0.011-1.444-0.765  c-0.154-0.911,0.741-1.135,1.021-1.183l19.334-3.289c0.403-0.068,0.762-0.3,0.991-0.639c0.229-0.34,0.31-0.759,0.223-1.159  l-0.25-1.148c-0.154-0.708-0.825-1.227-1.516-1.18l-22.31,0.745c-0.392-0.007-1.249-0.072-1.229-1.013  c0.021-0.965,1.155-0.97,1.273-0.968c0.042,0,0.085-0.001,0.129-0.003l22.862-1.53c1.346-0.03,1.432-1.109,1.561-2.729  c0.032-0.402-0.1-0.801-0.364-1.104c-0.266-0.305-0.642-0.489-1.045-0.512l-20.03-1.15c-0.335-0.07-1.1-0.324-0.957-1.169  c0.14-0.834,0.884-0.838,1.312-0.765c0.061,0.01,0.122,0.017,0.184,0.019c0.935,0.042,22.907,1.02,24.471,1.051  c0.015,0,0.029,0,0.043,0c1.454,0,3.268-1.497,3.552-2.42c0.205-0.666-4.521-6.408-5.647-6.402c-3.986,0-7.13-0.007-8.157-1.069  c-0.104-0.107-0.365-0.377-0.476-1.104c2.437-0.514,8.947-1.189,10.389-0.941c0,0,14.143,9.771,15.08,10.966  c0.422,0.539,1.127,1.061,1.884,1.393c0.984,0.433,4.776,1.038,6.532,1.302v14.149c-0.014,0.002-0.029,0-0.043,0.002  C80.931,53.666,62.763,58.482,62.532,58.561z M90.448,57.774h-6.042v-1.875V37.179h6.042V57.774z"></path></svg>