<?xml version="1.0" encoding="UTF-8" standalone="no"?>
<svg
   xmlns:dc="http://purl.org/dc/elements/1.1/"
   xmlns:cc="http://creativecommons.org/ns#"
   xmlns:rdf="http://www.w3.org/1999/02/22-rdf-syntax-ns#"
   xmlns:svg="http://www.w3.org/2000/svg"
   xmlns="http://www.w3.org/2000/svg"
   xmlns:xlink="http://www.w3.org/1999/xlink"
   xmlns:sodipodi="http://sodipodi.sourceforge.net/DTD/sodipodi-0.dtd"
   xmlns:inkscape="http://www.inkscape.org/namespaces/inkscape"
   inkscape:version="1.0 (4035a4fb49, 2020-05-01)"
   sodipodi:docname="lego_brick.svg"
   id="svg475"
   viewBox="-252 -205 315.32889 252.375"
   height="252.375"
   width="315.32889"
   version="1.1">
  <metadata
     id="metadata479">
    <rdf:RDF>
      <cc:Work
         rdf:about="">
        <dc:format>image/svg+xml</dc:format>
        <dc:type
           rdf:resource="http://purl.org/dc/dcmitype/StillImage" />
      </cc:Work>
    </rdf:RDF>
  </metadata>
  <sodipodi:namedview
     inkscape:current-layer="svg475"
     inkscape:window-maximized="1"
     inkscape:window-y="27"
     inkscape:window-x="0"
     inkscape:cy="163.8336"
     inkscape:cx="249.54688"
     inkscape:zoom="5.2363281"
     showgrid="false"
     id="namedview477"
     inkscape:window-height="1569"
     inkscape:window-width="2880"
     inkscape:pageshadow="2"
     inkscape:pageopacity="0"
     guidetolerance="10"
     gridtolerance="10"
     objecttolerance="10"
     borderopacity="1"
     bordercolor="#666666"
     pagecolor="#ffffff" />
  <title
     id="title362">Nominal dimensions of standard Lego bricks</title>
  <desc
     id="desc364">Nominal dimensions of standard Lego bricks from http://orionrobots.co.uk/Lego+Specifications and http://www.dimensionsguide.com/dimensions-of-a-standard-lego-brick , compiled by CMG Lee.</desc>
  <defs
     id="defs471">
    <linearGradient
       y2="0"
       x2="1"
       y1="0"
       x1="0"
       id="grad">
      <stop
         id="stop366"
         stop-opacity="0.25"
         stop-color="#000000"
         offset="20%" />
      <stop
         id="stop368"
         stop-opacity="0.5"
         stop-color="#000000"
         offset="80%" />
    </linearGradient>
    <path
       stroke="none"
       d="M 0,0 5,10 Q 0,0 -5,10 Z"
       id="arrow" />
    <text
       stroke="none"
       font-style="italic"
       font-size="16px"
       dy="0.5ex"
       y="0"
       x="0"
       transform="matrix(0.69282032,-0.4,0.5,0.8660254,0,0)"
       id="stud_text">LEGO</text>
    <g
       id="stud">
      <ellipse
         id="ellipse373"
         stroke="none"
         fill-opacity="0.25"
         fill="#000000"
         ry="17.6777"
         rx="30.618601"
         cy="3"
         cx="6" />
      <path
         id="path375"
         d="m -30.6186,-17 a 30.6186,17.6777 0 0 1 61.2372,0 V 0 a 30.6186,17.6777 0 0 1 -61.2372,0 z" />
      <path
         id="path377"
         fill="url(#grad)"
         d="m -30.6186,-17 a 30.6186,17.6777 0 0 0 61.2372,0 V 0 a 30.6186,17.6777 0 0 1 -61.2372,0 z" />
      <use
         height="100%"
         width="100%"
         y="0"
         x="0"
         id="use379"
         xlink:href="#stud_text"
         fill="#000000"
         transform="translate(1,-16)" />
      <use
         height="100%"
         width="100%"
         y="0"
         x="0"
         id="use381"
         xlink:href="#stud_text"
         transform="translate(0,-17)" />
    </g>
    <g
       id="brick">
      <path
         id="path384"
         d="M 0,40 69.282,0 V -96 L 0,-136 -69.282,-96 V 0 Z" />
      <path
         id="path386"
         fill-opacity="0.5"
         fill="#000000"
         d="M 0,40 V -56 L 69.282,-96 V 0 Z" />
      <path
         id="path388"
         fill-opacity="0.25"
         fill="#000000"
         d="M 0,40 V -56 L -69.282,-96 V 0 Z" />
      <use
         height="100%"
         width="100%"
         y="0"
         x="0"
         id="use390"
         xlink:href="#stud"
         transform="translate(0,-96)" />
    </g>
    <g
       id="plate">
      <path
         id="path393"
         d="M 0,40 69.282,0 v -32 l -138.564,-80 -69.282,40 v 32 z" />
      <path
         id="path395"
         fill-opacity="0.5"
         fill="#000000"
         d="M 0,40 V 8 L 69.282,-32 V 0 Z" />
      <path
         id="path397"
         fill-opacity="0.25"
         fill="#000000"
         d="M 0,40 V 8 l -138.564,-80 v 32 z" />
      <use
         height="100%"
         width="100%"
         y="0"
         x="0"
         id="use399"
         xlink:href="#stud"
         transform="translate(-69.282,-72)" />
      <use
         height="100%"
         width="100%"
         y="0"
         x="0"
         id="use401"
         xlink:href="#stud"
         transform="translate(0,-32)" />
    </g>
    <g
       fill="#000000"
       stroke="#000000"
       stroke-linejoin="round"
       stroke-linecap="round"
       font-size="16px"
       font-family="sans-serif"
       text-anchor="middle"
       id="main">
      <g
         id="g468">
        <use
           height="100%"
           width="100%"
           y="0"
           x="0"
           id="use404"
           fill="#ff0000"
           xlink:href="#plate" />
        <text
           id="text412"
           stroke="none"
           text-anchor="start"
           y="-190"
           x="-170"><tspan
             id="tspan406">P = 8.0 mm</tspan><tspan
             id="tspan408"
             dy="1em"
             x="-155">= 5/6 × H</tspan><tspan
             id="tspan410"
             dy="1em"
             x="-155">= 2.5 × h</tspan></text>
        <line
           id="line414"
           y2="-190"
           x2="-69"
           y1="-150"
           x1="0" />
        <use
           height="100%"
           width="100%"
           y="0"
           x="0"
           id="use416"
           transform="rotate(120,43.30127,-75)"
           xlink:href="#arrow" />
        <use
           height="100%"
           width="100%"
           y="0"
           x="0"
           id="use418"
           transform="rotate(-60,-199.04483,-35.244247)"
           xlink:href="#arrow" />
        <line
           id="line420"
           y2="-160"
           x2="0"
           y1="-50"
           x1="0" />
        <line
           id="line422"
           y2="-200"
           x2="-69"
           y1="-90"
           x1="-69" />
        <text
           id="text424"
           stroke="none"
           text-anchor="middle"
           y="-130"
           x="-32">3.2 mm</text>
        <line
           id="line426"
           y2="-120"
           x2="-48"
           y1="-105"
           x1="-24" />
        <use
           height="100%"
           width="100%"
           y="0"
           x="0"
           id="use428"
           transform="rotate(120,18.310889,-59.428203)"
           xlink:href="#arrow" />
        <use
           height="100%"
           width="100%"
           y="0"
           x="0"
           id="use430"
           transform="rotate(-60,-127.92305,-18.430781)"
           xlink:href="#arrow" />
        <line
           id="line432"
           y2="-110"
           x2="-24"
           y1="-62"
           x1="-24" />
        <line
           id="line434"
           y2="-125"
           x2="-48"
           y1="-78"
           x1="-48" />
        <text
           id="text440"
           stroke="none"
           text-anchor="end"
           y="20"
           x="-90"><tspan
             id="tspan436">2 × P − 0.2 mm</tspan><tspan
             id="tspan438"
             dy="1em"
             x="-90">= 15.8 mm</tspan></text>
        <line
           id="line442"
           y2="-35"
           x2="-147"
           y1="45"
           x1="-9" />
        <use
           height="100%"
           width="100%"
           y="0"
           x="0"
           id="use444"
           transform="rotate(120,-17.490381,19.901924)"
           xlink:href="#arrow" />
        <use
           height="100%"
           width="100%"
           y="0"
           x="0"
           id="use446"
           transform="rotate(-60,-103.81089,109.80573)"
           xlink:href="#arrow" />
        <text
           id="text454"
           stroke="none"
           text-anchor="start"
           y="-60"
           x="-247"><tspan
             id="tspan448">h = 3.2 mm</tspan><tspan
             id="tspan450"
             dy="1em"
             x="-235">= 1/3 × H</tspan><tspan
             id="tspan452"
             dy="1em"
             x="-235">= 0.4 × P</tspan></text>
        <line
           id="line456"
           y2="-35"
           x2="-147"
           y1="-67"
           x1="-147" />
        <use
           height="100%"
           width="100%"
           y="0"
           x="0"
           id="use458"
           transform="translate(-147,-67)"
           xlink:href="#arrow" />
        <use
           height="100%"
           width="100%"
           y="0"
           x="0"
           id="use460"
           transform="rotate(180,-73.5,-17.5)"
           xlink:href="#arrow" />
        <line
           id="line462"
           y2="-62"
           x2="-156"
           y1="-70"
           x1="-142" />
        <line
           id="line464"
           y2="-30"
           x2="-156"
           y1="-38"
           x1="-142" />
        <line
           id="line466"
           y2="50"
           x2="-17"
           y1="42"
           x1="-3" />
      </g>
    </g>
  </defs>
  <use
     transform="translate(-6.453125,-3.125)"
     height="100%"
     width="100%"
     y="0"
     x="0"
     id="use473"
     xlink:href="#main" />
</svg>
